<svg height="200" node-id="1" sillyvg="true" template-height="200" template-width="371" version="1.1" viewBox="0 0 371 200" width="371" xmlns="http://www.w3.org/2000/svg" xmlns:xlink="http://www.w3.org/1999/xlink"><defs node-id="74"><linearGradient gradientUnits="userSpaceOnUse" id="路径_4_" node-id="10" spreadMethod="pad" x1="-61578" x2="-61503.906" y1="-38916.43" y2="-38729.39"><stop offset="0.5663" stop-color="#dee9e9"></stop><stop offset="0.9708" stop-color="#ffffff" stop-opacity="0"></stop></linearGradient><linearGradient gradientUnits="userSpaceOnUse" id="路径_11_" node-id="14" spreadMethod="pad" x1="-56894.06" x2="-56926.035" y1="-38590.34" y2="-38499.855"><stop offset="0.6291" stop-color="#dee9e9"></stop><stop offset="1" stop-color="#ffffff" stop-opacity="0"></stop></linearGradient><linearGradient gradientUnits="userSpaceOnUse" id="路径_12_" node-id="18" spreadMethod="pad" x1="-361203.94" x2="-361203.94" y1="-30615.04" y2="-30448.508"><stop offset="0.51" stop-color="#dde9e8"></stop><stop offset="1" stop-color="#ffffff" stop-opacity="0"></stop></linearGradient><linearGradient gradientUnits="userSpaceOnUse" id="形状结合_3_" node-id="22" spreadMethod="pad" x1="-33973.605" x2="-33995.52" y1="-33004.21" y2="-32891.1"><stop offset="0.4963" stop-color="#dee9e9"></stop><stop offset="1" stop-color="#ffffff" stop-opacity="0"></stop></linearGradient><linearGradient gradientUnits="userSpaceOnUse" id="路径_14_" node-id="49" spreadMethod="pad" x1="-48621.637" x2="-48570.234" y1="835.3306" y2="837.58704"><stop offset="0.001198948" stop-color="#e9f0f1"></stop><stop offset="0.9279" stop-color="#c0d5d5"></stop></linearGradient><linearGradient gradientUnits="userSpaceOnUse" id="路径_15_" node-id="53" spreadMethod="pad" x1="-38561.684" x2="-38561.684" y1="819.86957" y2="836.5368"><stop offset="0.001198948" stop-color="#e9f0f1"></stop><stop offset="0.9279" stop-color="#b6cccc"></stop></linearGradient><linearGradient gradientUnits="userSpaceOnUse" id="路径_16_" node-id="57" spreadMethod="pad" x1="-45606.418" x2="-45649.13" y1="922.019" y2="818.7021"><stop offset="0.001198948" stop-color="#e9f0f1"></stop><stop offset="0.9279" stop-color="#c0d5d5"></stop></linearGradient><linearGradient gradientUnits="userSpaceOnUse" id="路径_17_" node-id="61" spreadMethod="pad" x1="-41179.51" x2="-41142.566" y1="842.9541" y2="960.24097"><stop offset="0.001198948" stop-color="#e9f0f1"></stop><stop offset="0.9279" stop-color="#c0d5d5"></stop></linearGradient><linearGradient gradientUnits="userSpaceOnUse" id="路径_18_" node-id="65" spreadMethod="pad" x1="-56763.266" x2="-56763.266" y1="848.5533" y2="812.173"><stop offset="0.001198948" stop-color="#e9f0f1"></stop><stop offset="0.9279" stop-color="#c0d5d5"></stop></linearGradient><linearGradient gradientUnits="userSpaceOnUse" id="路径_19_" node-id="69" spreadMethod="pad" x1="-54612.883" x2="-54612.883" y1="829.8141" y2="874.8641"><stop offset="0.001198948" stop-color="#e9f0f1"></stop><stop offset="0.9279" stop-color="#c0d5d5"></stop></linearGradient></defs><g node-id="135"><g node-id="137"><g node-id="139"><g node-id="141"><path d="M 73.20 159.60 L 70.27 158.01 L 67.33 155.88 L 64.63 153.37 L 62.29 150.53 L 60.41 147.41 L 59.18 144.16 L 58.76 141.91 L 58.73 139.67 L 59.10 137.40 L 60.01 137.32 L 60.89 137.51 L 61.67 137.95 L 62.30 138.60 L 63.30 140.09 L 65.71 143.42 L 67.20 145.25 L 68.67 146.84 L 70.20 148.11 L 71.32 148.61 L 71.94 148.57 L 72.42 148.12 L 72.79 147.01 L 72.83 144.80 L 72.20 140.30 L 70.12 131.09 L 68.08 121.91 L 67.37 117.26 L 67.00 112.50 L 67.16 109.03 L 67.67 106.11 L 68.51 103.66 L 69.72 101.39 L 71.09 99.66 L 72.61 98.40 L 74.36 97.52 L 76.14 97.14 L 77.99 97.25 L 79.75 97.83 L 81.51 98.97 L 83.29 100.77 L 84.72 102.88 L 86.04 105.74 L 87.20 109.50 L 87.77 112.85 L 88.82 118.60 L 89.54 121.78 L 90.40 124.76 L 91.46 127.49 L 92.57 129.35 L 93.49 130.24 L 94.40 130.56 L 95.40 130.40 L 96.31 129.71 L 97.00 128.80 L 98.21 126.47 L 99.29 123.97 L 100.39 121.49 L 101.64 119.33 L 102.67 118.10 L 103.91 117.16 L 105.40 116.50 L 106.85 116.22 L 108.24 116.27 L 109.63 116.64 L 111.58 117.64 L 113.41 119.09 L 115.00 120.84 L 116.30 122.70 L 117.68 125.28 L 119.17 128.64 L 120.48 132.24 L 121.59 136.18 L 122.37 140.21 L 122.71 144.16 L 122.65 146.77 L 122.31 149.17 L 121.69 151.39 L 120.74 153.44 L 119.41 155.20 L 117.70 156.70 L 114.47 158.43 L 110.31 159.95 L 105.80 161.07 L 100.80 161.88 L 95.67 162.35 L 90.53 162.48 L 85.47 162.27 L 80.88 161.73 L 76.57 160.80 L 73.20 159.60 L 73.20 159.60 Z" fill="url(#路径_4_)" fill-rule="nonzero" group-id="1,3,5,7" id="路径" node-id="13" stroke="none" target-height="65.34" target-width="63.98" target-x="58.73" target-y="97.14"></path><path d="M 296.80 173.10 L 295.96 170.76 L 295.36 168.22 L 295.03 165.45 L 295.01 162.67 L 295.35 160.01 L 296.04 157.45 L 297.13 155.07 L 298.64 153.07 L 300.60 151.40 L 301.20 151.86 L 301.61 152.47 L 301.82 153.19 L 301.80 154.00 L 301.58 155.49 L 301.21 158.91 L 301.14 162.70 L 301.37 164.35 L 301.79 165.29 L 302.19 165.61 L 302.75 165.60 L 303.59 165.11 L 304.87 163.76 L 307.00 160.60 L 310.88 153.70 L 314.79 146.84 L 316.96 143.55 L 319.40 140.40 L 322.00 137.85 L 324.43 136.15 L 326.74 135.15 L 329.19 134.68 L 331.24 134.82 L 333.03 135.50 L 334.16 136.35 L 335.04 137.45 L 335.68 138.86 L 336.05 140.65 L 336.07 142.41 L 335.73 144.47 L 334.94 146.91 L 333.60 149.80 L 332.09 152.22 L 329.52 156.38 L 327.05 161.10 L 326.18 163.40 L 325.82 165.18 L 325.90 166.24 L 326.29 166.94 L 327.00 167.40 L 327.95 167.50 L 328.90 167.30 L 330.94 166.54 L 333.02 165.59 L 335.10 164.67 L 337.11 164.01 L 338.46 163.80 L 339.78 163.90 L 341.10 164.30 L 342.58 165.34 L 343.62 166.78 L 344.27 168.49 L 344.58 170.42 L 344.58 172.39 L 344.30 174.30 L 343.60 176.79 L 342.51 179.26 L 340.99 181.71 L 339.16 183.92 L 337.03 185.79 L 334.57 187.36 L 331.91 188.45 L 329.01 188.97 L 325.80 188.90 L 321.97 188.23 L 317.63 187.11 L 313.29 185.63 L 309.01 183.78 L 304.99 181.55 L 301.54 179.06 L 299.52 177.14 L 297.96 175.16 L 296.80 173.10 L 296.80 173.10 Z" fill="url(#路径_11_)" fill-rule="nonzero" group-id="1,3,5,7" id="路径_1_" node-id="17" stroke="none" target-height="54.29001" target-width="49.569977" target-x="295.01" target-y="134.68"></path><path d="M 370.40 199.40 L 361.56 193.63 L 352.24 188.11 L 342.41 182.85 L 332.05 177.83 L 321.60 173.28 L 310.73 169.03 L 299.42 165.10 L 287.65 161.49 L 275.85 158.33 L 263.70 155.55 L 251.19 153.14 L 238.30 151.12 L 225.43 149.56 L 212.28 148.43 L 198.84 147.74 L 185.10 147.50 L 171.36 147.74 L 157.92 148.43 L 144.78 149.55 L 131.92 151.11 L 119.03 153.12 L 106.53 155.52 L 94.39 158.30 L 82.60 161.45 L 70.84 165.06 L 59.54 168.98 L 48.68 173.23 L 38.23 177.79 L 27.89 182.81 L 18.06 188.08 L 8.74 193.62 L -0.10 199.40 L 370.40 199.40 Z" fill="url(#路径_12_)" fill-rule="nonzero" group-id="1,3,5,7" id="路径_2_" node-id="21" stroke="none" target-height="51.899994" target-width="370.5" target-x="-0.1" target-y="147.5"></path><path d="M 293.40 103.10 L 292.00 105.08 L 290.90 107.23 L 290.09 109.56 L 289.67 111.97 L 289.74 114.34 L 290.30 116.70 L 291.09 118.10 L 292.09 119.14 L 293.16 120.11 L 294.11 121.19 L 294.72 122.49 L 294.90 124.50 L 294.47 126.70 L 293.74 128.79 L 292.70 130.80 L 290.47 134.33 L 287.94 137.66 L 285.10 140.80 L 286.73 142.44 L 287.84 144.40 L 288.40 146.58 L 288.40 148.90 L 287.85 151.19 L 286.98 153.28 L 285.77 155.21 L 284.20 157.00 L 283.06 158.05 L 281.70 158.80 L 280.30 158.95 L 278.90 158.80 L 274.31 157.79 L 269.92 156.39 L 265.70 154.60 L 263.76 153.58 L 261.96 152.31 L 260.48 150.75 L 259.50 148.90 L 259.21 147.39 L 259.29 146.32 L 259.65 145.56 L 260.60 144.60 L 261.90 143.80 L 262.40 143.50 L 263.72 142.65 L 264.70 141.60 L 265.45 139.91 L 265.90 138.03 L 266.50 134.30 L 266.89 130.13 L 267.16 127.85 L 267.71 125.80 L 268.33 124.62 L 269.25 123.73 L 270.50 123.10 L 273.10 122.64 L 275.70 122.10 L 277.39 121.30 L 278.77 120.24 L 279.87 118.91 L 281.23 116.60 L 282.40 114.00 L 282.70 113.40 L 284.01 110.46 L 284.80 109.10 L 285.70 107.90 L 286.78 106.87 L 288.21 105.97 L 291.23 104.50 L 292.57 103.77 L 293.40 103.10 Z M 282.70 123.80 L 281.32 125.53 L 278.04 130.17 L 276.15 133.25 L 274.17 136.93 L 272.42 140.84 L 270.99 145.01 L 270.30 147.88 L 269.90 150.73 L 269.80 153.60 L 274.10 153.60 L 274.46 150.70 L 275.77 143.39 L 276.87 138.83 L 278.40 133.73 L 280.32 128.67 L 282.70 123.80 Z" fill="url(#形状结合_3_)" fill-rule="nonzero" group-id="1,3,5,7" id="形状结合" node-id="25" stroke="none" target-height="55.85" target-width="35.690002" target-x="259.21" target-y="103.1"></path></g></g></g></g><g node-id="136"><g node-id="138"><g node-id="140"><path d="M 177.30 73.60 L 176.80 104.60 L 247.80 83.10 Z" fill="url(#路径_14_)" fill-rule="nonzero" group-id="2,4,6" id="路径_3_" node-id="52" stroke="none" target-height="31" target-width="71" target-x="176.8" target-y="73.6"></path><path d="M 120.70 86.10 L 177.30 73.70 L 177.30 92.60 Z" fill="url(#路径_15_)" fill-rule="nonzero" group-id="2,4,6" id="路径_6_" node-id="56" stroke="none" target-height="18.900002" target-width="56.600006" target-x="120.7" target-y="73.7"></path><path d="M 120.70 86.10 L 187.50 92.70 L 187.50 177.20 L 120.70 161.00 Z" fill="url(#路径_16_)" fill-rule="nonzero" group-id="2,4,6" id="路径_7_" node-id="60" stroke="none" target-height="91.1" target-width="66.8" target-x="120.7" target-y="86.1"></path><path d="M 187.50 92.70 L 247.80 83.10 L 247.80 158.80 L 187.50 177.20 Z" fill="url(#路径_17_)" fill-rule="nonzero" group-id="2,4,6" id="路径_8_" node-id="64" stroke="none" target-height="94.1" target-width="60.300003" target-x="187.5" target-y="83.1"></path><path d="M 120.70 86.10 L 104.70 113.20 L 172.10 126.10 L 187.50 92.70 Z" fill="url(#路径_18_)" fill-rule="nonzero" group-id="2,4,6" id="路径_9_" node-id="68" stroke="none" target-height="40" target-width="82.8" target-x="104.7" target-y="86.1"></path><path d="M 187.50 92.70 L 206.40 126.10 L 267.20 110.90 L 247.80 83.10 Z" fill="url(#路径_19_)" fill-rule="nonzero" group-id="2,4,6" id="路径_10_" node-id="72" stroke="none" target-height="43" target-width="79.70001" target-x="187.5" target-y="83.1"></path></g></g></g></svg>