<svg height="1024" node-id="1" sillyvg="true" template-height="1024" template-width="1121" version="1.1" viewBox="0 0 1121 1024" width="1121" xmlns="http://www.w3.org/2000/svg" xmlns:xlink="http://www.w3.org/1999/xlink"><defs node-id="38"><linearGradient gradientUnits="userSpaceOnUse" id="paint0_linear_1608_18719" node-id="28" spreadMethod="pad" x1="939.076" x2="1112.05" y1="183.346" y2="183.346"><stop offset="0" stop-color="#f8bb67"></stop><stop offset="1" stop-color="#fee6b6"></stop></linearGradient><linearGradient gradientUnits="userSpaceOnUse" id="paint1_linear_1608_18719" node-id="31" spreadMethod="pad" x1="91.6916" x2="170.771" y1="143.958" y2="143.958"><stop offset="0" stop-color="#88eebe"></stop><stop offset="1" stop-color="#70d1d6"></stop></linearGradient><linearGradient gradientUnits="userSpaceOnUse" id="paint2_linear_1608_18719" node-id="34" spreadMethod="pad" x1="636.536" x2="969.85" y1="844.707" y2="844.707"><stop offset="0" stop-color="#88eebe"></stop><stop offset="1" stop-color="#70d1d6"></stop></linearGradient></defs><path d="M 1112.05 741.59 C 1112.05 767.63 1090.92 788.76 1064.88 788.76 L 656.03 788.76 C 629.98 788.76 608.87 767.63 608.87 741.59 L 608.87 144.03 C 608.87 117.97 629.99 96.86 656.03 96.86 L 939.08 96.86 L 1112.06 269.83 L 1112.05 741.59 Z" fill="#fbfbfb" fill-rule="nonzero" node-id="59" stroke="none" target-height="691.9" target-width="503.19006" target-x="608.87" target-y="96.86"></path><path d="M 955.00 253.00 L 1112.24 408.18 L 1112.24 268.71 L 1096.53 253.00 L 955.00 253.00 Z" fill="#d8e5ed" fill-rule="nonzero" node-id="61" stroke="none" target-height="155.18" target-width="157.23999" target-x="955" target-y="253"></path><path d="M 939.08 96.86 L 939.08 222.66 C 939.08 248.71 960.20 269.83 986.25 269.83 L 1112.06 269.83 L 939.08 96.86 Z" fill="url(#paint0_linear_1608_18719)" fill-rule="nonzero" node-id="63" stroke="none" target-height="172.96999" target-width="172.98004" target-x="939.08" target-y="96.86"></path><path d="M 891.44 318.33 L 680.64 318.33 L 680.64 337.82 L 891.44 337.82 L 891.44 318.33 Z" fill="#d8e5ed" fill-rule="nonzero" node-id="65" stroke="none" target-height="19.49002" target-width="210.79999" target-x="680.64" target-y="318.33"></path><path d="M 1029.29 388.14 L 680.64 388.14 L 680.64 407.63 L 1029.29 407.63 L 1029.29 388.14 Z" fill="#d8e5ed" fill-rule="nonzero" node-id="67" stroke="none" target-height="19.48999" target-width="348.65002" target-x="680.64" target-y="388.14"></path><path d="M 1029.29 428.69 L 680.64 428.69 L 680.64 448.18 L 1029.29 448.18 L 1029.29 428.69 Z" fill="#d8e5ed" fill-rule="nonzero" node-id="69" stroke="none" target-height="19.48999" target-width="348.65002" target-x="680.64" target-y="428.69"></path><path d="M 1029.29 469.28 L 680.64 469.28 L 680.64 488.77 L 1029.29 488.77 L 1029.29 469.28 Z" fill="#d8e5ed" fill-rule="nonzero" node-id="71" stroke="none" target-height="19.48999" target-width="348.65002" target-x="680.64" target-y="469.28"></path><path d="M 1029.29 509.82 L 680.64 509.82 L 680.64 529.32 L 1029.29 529.32 L 1029.29 509.82 Z" fill="#d8e5ed" fill-rule="nonzero" node-id="73" stroke="none" target-height="19.5" target-width="348.65002" target-x="680.64" target-y="509.82"></path><path d="M 1029.29 550.39 L 680.64 550.39 L 680.64 569.89 L 1029.29 569.89 L 1029.29 550.39 Z" fill="#d8e5ed" fill-rule="nonzero" node-id="75" stroke="none" target-height="19.5" target-width="348.65002" target-x="680.64" target-y="550.39"></path><path d="M 1029.29 590.96 L 680.64 590.96 L 680.64 610.46 L 1029.29 610.46 L 1029.29 590.96 Z" fill="#d8e5ed" fill-rule="nonzero" node-id="77" stroke="none" target-height="19.5" target-width="348.65002" target-x="680.64" target-y="590.96"></path><path d="M 971.78 631.53 L 680.64 631.53 L 680.64 651.02 L 971.78 651.02 L 971.78 631.53 Z" fill="#d8e5ed" fill-rule="nonzero" node-id="79" stroke="none" target-height="19.48999" target-width="291.14" target-x="680.64" target-y="631.53"></path><path d="M 778.17 0.00 L 55.35 0.00 C 24.78 0.00 0.00 24.78 0.00 55.35 L 0.00 830.27 C 0.00 860.84 24.78 885.62 55.35 885.62 L 778.17 885.62 C 808.75 885.62 833.53 860.84 833.53 830.27 L 833.53 55.35 C 833.53 24.78 808.75 0.00 778.17 0.00 Z" fill="#ffffff" fill-rule="nonzero" node-id="81" stroke="none" target-height="885.62" target-width="833.53" target-x="0" target-y="0"></path><path d="M 156.94 104.19 L 105.53 104.19 C 97.89 104.19 91.69 110.39 91.69 118.03 L 91.69 169.90 C 91.69 177.54 97.89 183.74 105.53 183.74 L 156.94 183.74 C 164.58 183.74 170.77 177.54 170.77 169.90 L 170.77 118.03 C 170.77 110.39 164.58 104.19 156.94 104.19 Z" fill="url(#paint1_linear_1608_18719)" fill-rule="nonzero" node-id="83" stroke="none" target-height="79.55" target-width="79.08" target-x="91.69" target-y="104.19"></path><path d="M 489.20 113.03 L 202.39 113.03 L 202.39 133.87 L 489.20 133.87 L 489.20 113.03 Z" fill="#b5d1de" fill-rule="nonzero" node-id="85" stroke="none" target-height="20.839996" target-width="286.81" target-x="202.39" target-y="113.03"></path><path d="M 410.25 155.61 L 202.39 155.61 L 202.39 176.45 L 410.25 176.45 L 410.25 155.61 Z" fill="#b5d1de" fill-rule="nonzero" node-id="87" stroke="none" target-height="20.839996" target-width="207.86" target-x="202.39" target-y="155.61"></path><path d="M 714.69 216.06 L 119.37 216.06 C 104.08 216.06 91.69 228.46 91.69 243.74 L 91.69 452.60 C 91.69 467.88 104.08 480.27 119.37 480.27 L 714.69 480.27 C 729.97 480.27 742.36 467.88 742.36 452.60 L 742.36 243.74 C 742.36 228.46 729.97 216.06 714.69 216.06 Z" fill="#d8e5ed" fill-rule="nonzero" node-id="89" stroke="none" target-height="264.21" target-width="650.67" target-x="91.69" target-y="216.06"></path><path d="M 156.88 507.93 L 105.00 507.93 C 97.36 507.93 91.17 514.12 91.17 521.77 L 91.17 573.64 C 91.17 581.28 97.36 587.47 105.00 587.47 L 156.88 587.47 C 164.52 587.47 170.72 581.28 170.72 573.64 L 170.72 521.77 C 170.72 514.12 164.52 507.93 156.88 507.93 Z" fill="#f5b1ae" fill-rule="nonzero" node-id="91" stroke="none" target-height="79.53998" target-width="79.55" target-x="91.17" target-y="507.93"></path><path d="M 491.03 516.78 L 202.53 516.78 L 202.53 537.62 L 491.03 537.62 L 491.03 516.78 Z" fill="#b5d1de" fill-rule="nonzero" node-id="93" stroke="none" target-height="20.839966" target-width="288.5" target-x="202.53" target-y="516.78"></path><path d="M 736.60 620.10 L 91.17 620.10 L 91.17 646.15 L 736.60 646.15 L 736.60 620.10 Z" fill="#d8e5ed" fill-rule="nonzero" node-id="95" stroke="none" target-height="26.050049" target-width="645.43" target-x="91.17" target-y="620.1"></path><path d="M 736.60 661.52 L 91.17 661.52 L 91.17 687.57 L 736.60 687.57 L 736.60 661.52 Z" fill="#d8e5ed" fill-rule="nonzero" node-id="97" stroke="none" target-height="26.049988" target-width="645.43" target-x="91.17" target-y="661.52"></path><path d="M 702.51 702.95 L 91.17 702.95 L 91.17 729.00 L 702.51 729.00 L 702.51 702.95 Z" fill="#d8e5ed" fill-rule="nonzero" node-id="99" stroke="none" target-height="26.049988" target-width="611.34" target-x="91.17" target-y="702.95"></path><path d="M 411.61 559.34 L 202.53 559.34 L 202.53 580.18 L 411.61 580.18 L 411.61 559.34 Z" fill="#b5d1de" fill-rule="nonzero" node-id="101" stroke="none" target-height="20.839966" target-width="209.07999" target-x="202.53" target-y="559.34"></path><path d="M 803.20 1011.37 C 895.24 1011.37 969.85 936.75 969.85 844.71 C 969.85 752.67 895.24 678.05 803.20 678.05 C 711.16 678.05 636.54 752.67 636.54 844.71 C 636.54 936.75 711.16 1011.37 803.20 1011.37 Z" fill="url(#paint2_linear_1608_18719)" fill-rule="nonzero" node-id="103" stroke="none" target-height="333.32" target-width="333.31" target-x="636.54" target-y="678.05"></path><path d="M 852.25 792.65 C 849.91 792.93 847.77 794.09 846.26 795.89 C 844.76 797.69 843.99 800.00 844.13 802.35 C 844.27 804.70 845.30 806.90 847.01 808.52 C 848.72 810.13 850.98 811.03 853.33 811.04 L 876.39 811.04 L 876.39 903.29 L 728.79 903.29 L 728.79 811.04 L 751.85 811.04 C 754.30 811.04 756.64 810.06 758.37 808.33 C 760.10 806.60 761.08 804.26 761.08 801.81 C 761.08 799.36 760.10 797.02 758.37 795.29 C 756.64 793.56 754.30 792.59 751.85 792.59 L 728.79 792.59 C 726.37 792.59 723.97 793.06 721.73 793.99 C 719.49 794.92 717.45 796.28 715.74 797.99 C 714.03 799.70 712.67 801.74 711.74 803.97 C 710.82 806.21 710.34 808.61 710.34 811.04 L 710.34 903.29 C 710.34 905.71 710.82 908.11 711.74 910.35 C 712.67 912.59 714.03 914.62 715.74 916.34 C 717.45 918.05 719.49 919.41 721.73 920.33 C 723.97 921.26 726.37 921.74 728.79 921.74 L 876.39 921.74 C 878.82 921.74 881.21 921.26 883.45 920.33 C 885.69 919.41 887.73 918.05 889.44 916.34 C 891.15 914.62 892.51 912.59 893.44 910.35 C 894.37 908.11 894.84 905.71 894.84 903.29 L 894.84 811.04 C 894.84 808.61 894.37 806.21 893.44 803.97 C 892.51 801.74 891.15 799.70 889.44 797.99 C 887.73 796.28 885.69 794.92 883.45 793.99 C 881.21 793.06 878.82 792.59 876.39 792.59 L 853.33 792.59 L 852.25 792.65 Z" fill="#ffffff" fill-rule="nonzero" node-id="105" stroke="none" target-height="129.14996" target-width="184.5" target-x="710.34" target-y="792.59"></path><path d="M 806.12 742.41 C 805.00 741.95 803.80 741.71 802.59 741.71 C 801.38 741.71 800.18 741.95 799.06 742.41 C 797.94 742.87 796.92 743.55 796.07 744.41 C 795.21 745.27 794.53 746.28 794.07 747.40 C 793.60 748.52 793.37 749.72 793.37 750.93 L 793.37 824.74 L 765.93 824.74 C 764.97 824.74 764.03 825.04 763.25 825.60 C 762.47 826.16 761.88 826.96 761.57 827.87 C 761.26 828.78 761.25 829.76 761.53 830.68 C 761.80 831.60 762.36 832.41 763.13 833.00 L 798.69 860.34 C 799.90 861.27 801.37 861.77 802.89 861.77 C 804.42 861.78 805.89 861.28 807.10 860.35 L 842.93 833.01 C 843.90 832.27 844.54 831.17 844.70 829.96 C 844.87 828.75 844.54 827.52 843.80 826.55 L 843.22 825.92 C 842.37 825.16 841.28 824.74 840.14 824.74 L 811.82 824.74 L 811.82 750.93 C 811.82 749.72 811.58 748.52 811.12 747.40 C 810.65 746.28 809.97 745.27 809.12 744.41 C 808.26 743.55 807.24 742.87 806.12 742.41 Z" fill="#ffffff" fill-rule="nonzero" node-id="107" stroke="none" target-height="120.07001" target-width="83.619995" target-x="761.25" target-y="741.71"></path></svg>
